<?xml version="1.0" encoding="UTF-8" standalone="no"?>
<!DOCTYPE svg PUBLIC "-//W3C//DTD SVG 1.1//EN" "http://www.w3.org/Graphics/SVG/1.1/DTD/svg11.dtd">
<svg width="100%" height="100%" viewBox="0 0 1080 1176" version="1.1" xmlns="http://www.w3.org/2000/svg" xmlns:xlink="http://www.w3.org/1999/xlink" xml:space="preserve" xmlns:serif="http://www.serif.com/" style="fill-rule:evenodd;clip-rule:evenodd;stroke-linejoin:round;stroke-miterlimit:2;">
    <path d="M569,415C565.833,445 582.5,496.833 598,537C610.981,570.638 621.5,605.167 632,633C640.281,654.951 653.263,690.91 660,710C666.659,728.867 672.167,750.167 687,755C701.833,759.833 755.587,746.577 771,745C803.2,741.706 818.747,735.316 822,726C825.667,715.5 820.376,694.652 809,675C796.587,653.557 787.667,614.5 783,598C781.095,591.264 777.048,581.562 781,580C788.167,577.167 794.42,587.073 803,592C819.833,601.667 856.333,627 880,638C901.228,647.867 925.667,658 944,663C958.281,666.895 989.093,674.822 998,663C1007.167,650.833 1005.985,608.184 1005,585C1004.151,565.008 1003,543.5 1000,525C997.164,507.508 990.942,490.694 985,474C978,454.333 967.333,426.833 958,407C949.549,389.042 940.169,371.044 930,354C918.167,334.167 898.667,302 887,288C880.01,279.612 869.626,273.512 859,271C849.833,268.833 818.112,270.617 805,296C784.735,335.23 848,424.5 842,428C836,431.5 819,401.333 809,385C799.774,369.93 788,354.5 777,343C766.954,332.497 756.131,316.343 742,317C720.5,318 679.333,337.5 648,349C617.282,360.274 572.022,386.374 569,415Z" style="fill:rgb(120,113,108);"/>
    <path d="M186,979C190.167,956.333 281.809,945.185 356,911C437.045,873.657 467.466,851.892 481,850C491.394,848.547 518.667,885.667 508,902C497.333,918.333 452.833,925.333 439,937C432.078,942.838 433.333,963.833 442,964C450.667,964.167 479.333,934 491,938C502.667,942 514.667,976.667 512,988C509.333,999.333 475.744,992.305 475,1006C474.167,1021.333 506.333,1066.833 507,1080C507.479,1089.469 480.476,1089.706 471,1090C433.333,1091.167 363.167,1078.5 315,1060C267.79,1041.868 181.833,1001.667 186,979Z" style="fill:rgb(120,113,108);"/>
    <path d="M60,701C66,689.667 118.968,670.026 137,657C161.879,639.027 184.148,669.154 192.815,680.821C197.835,687.578 205.704,701.582 211,699C219.695,694.761 218.624,645.168 218.624,645.168C218.624,645.168 223.646,597.948 232,585C248.667,559.167 284.667,536.833 300,527C306.758,522.666 316.133,516.343 321,525C338.594,556.294 373.211,665.471 394.378,715.138C410.12,752.075 431.692,792.812 448,823C455.219,836.362 411,862 411,862C411,862 374.5,890.833 350,892C329.034,892.998 307.169,872.449 300,864C286,847.5 277.899,801.071 266,793C253.567,784.567 254.167,808.333 255,818C255.761,826.824 252.851,835.82 245,840C232.167,846.833 184.755,796.226 226,871C230.2,878.614 246.833,901.5 247,911C247.161,920.152 251.232,926.633 232,934C218.848,939.038 190.914,953.413 173,945C154.584,936.351 144.918,924.588 138,915C128.5,901.833 121.701,882.403 111,862C86,814.333 69,758 69,758C69,758 51.171,717.678 60,701Z" style="fill:rgb(120,113,108);"/>
    <path d="M340,531C347.776,551.42 365.02,591.715 377,621C389,650.333 395.167,678.667 408,707C420.555,734.718 432.833,769 446,790C456.52,806.779 465.667,813.333 477,820C484.805,824.591 505.592,826.363 514,823C527.333,817.667 550.833,809.333 567,801C581.445,793.554 596.262,784.96 611,780C630.481,773.444 652.5,770.333 659,763C664.837,756.414 653.351,744.137 650,736C646.5,727.5 643,717.333 640,709C637.251,701.363 634,692.167 632,686C630.503,681.383 630.482,673.959 628,672C624.833,669.5 622.667,669.667 618,671C613.333,672.333 604.983,676.401 600,680C594,684.333 582.833,690.333 577,694C572.805,696.637 568.667,699.833 565,702C563.537,702.865 558.893,709.446 554,705C549.071,700.521 538.387,677.185 538,670C537.443,659.662 551.799,658.966 554,658C560.833,655 570.667,652.333 579,649C584,647 583.667,648.667 594,643C598.345,640.617 600.833,634 600,628C599.167,622 593.118,613.897 591,609C589.738,606.082 586.627,599.449 586.294,597.616C586.196,597.077 586,596 586,596C586,596 580.5,578.833 578,572C575.894,566.245 575.667,557.333 571,555C566.333,552.667 556.384,554.96 550,558C543,561.333 536.447,569.936 529,575C520.667,580.667 506,588.333 500,592C497.553,593.495 493,597 493,597C493,597 484.5,605.833 482,605C479.5,604.167 479.1,596.398 478,592C476.667,586.667 475.356,579.328 474,573C472.5,566 470.667,560.833 469,555C467.81,550.833 461.671,544.272 464,538C466.004,532.603 474.7,531.15 479,529C484.667,526.167 512.333,521.333 519,521C525.36,520.682 533.167,520 538,519C541.516,518.273 546.334,518.18 548,515C549.833,511.5 549.129,503.675 549,498C548.833,490.667 547.885,479.981 547,471C545.833,459.167 543.833,437.333 542,427C540.895,420.773 539.833,413.167 536,409C533.644,406.439 522.395,401.233 519,402C513.833,403.167 505.085,408.851 498,412C490.5,415.333 480.833,419.167 474,422C468.339,424.347 464.333,426.333 457,429C449.856,431.598 437.183,435.514 430,438C417,442.5 387.333,453.5 374,459C366.813,461.965 356.833,467 350,471C345.993,473.345 328.667,486 327,496C325.333,506 334.576,516.756 340,531Z" style="fill:rgb(120,113,108);"/>
    <path d="M51,680C30,669.5 33.333,599 32,569C30.966,545.733 36.502,522.366 43,500C50.167,475.333 63.833,445.833 75,421C85.699,397.207 98.069,374.199 110,351C122,327.667 137.167,299 147,281C154.017,268.155 163,252.5 169,243C173.201,236.349 178.333,228 183,224C186.762,220.775 193.5,217.833 197,219C200.5,220.167 203.147,226.449 204,231C206,241.667 207.5,270.167 209,283C209.98,291.382 207.333,314.253 213,308C222.667,297.333 252.333,243.167 267,219C278.33,200.331 291.167,178.5 301,163C308.974,150.431 320,133.833 326,126C329.013,122.066 333.333,115.833 337,116C340.667,116.167 345.631,122.387 348,127C357.5,145.5 385.167,207 394,227C396.854,233.461 401.167,241.667 401,247C400.85,251.805 396.474,255.677 393,259C381.5,270 346.333,299.333 332,313C322.944,321.634 305.234,334.557 296,343C284.333,353.667 266,367 260,378C255.001,387.165 263.196,400.278 268,409C273.958,419.817 282.904,433.045 289,446C295.667,460.167 318.486,476.741 311,492C302.333,509.667 246.167,549.667 225,558C211.349,563.374 191.011,546.09 184,542C176,537.333 165.667,529.167 159,522C152.766,515.298 146.833,499.667 144,499C141.167,498.333 141.619,511.643 142,518C142.5,526.333 144.51,538.834 147,549C151,565.333 177.336,603.683 166,616C148.667,634.833 72,690.5 51,680Z" style="fill:rgb(120,113,108);"/>
    <path d="M435,282C445.39,319.055 448.482,398.799 482,397C516.167,395.167 590.833,353.167 630,337C652.257,327.813 687.169,316.158 709,306C733,294.833 770,277.5 786,266C795.384,259.255 809.131,247.793 805,237C799.833,223.5 754.603,191.404 731,196C699.333,202.167 644.167,257.833 619,268C609.702,271.756 597.333,253.333 604,246C610.667,238.667 681.5,200.333 687,189C692.5,177.667 645.5,165 632,160C618.5,155 583.833,198.833 571,195C558.167,191.167 551.5,172.167 558,163C564.5,153.833 601.833,150.884 603,142C605.167,125.5 584.291,117.998 574,114C547.833,103.833 491.667,88.167 456,84C431.72,81.164 397,87.5 384,94C374.344,98.828 368.047,112.616 371,123C381,158.167 403.922,171.168 435,282Z" style="fill:rgb(120,113,108);"/>
    <path d="M561,842C572.174,804.54 633.955,797.983 672,789C732,774.833 868.187,753.865 917,732C960.129,712.682 985,680.667 992,694C999,707.333 994.531,767.793 981,799C962.5,841.667 924.395,917.088 873,953C807.167,999 621,1094.833 570,1074C519,1053.167 546.333,891.167 561,842ZM653,880C633.333,895.333 630.167,938.667 629,957C628.214,969.349 633.677,991.12 646,990C675.333,987.333 719.732,971.973 743,947C781.667,905.5 804.418,867.937 800,855C795.333,841.333 757.724,850.986 740,854C715.5,858.167 672.667,864.667 653,880Z" style="fill:rgb(120,113,108);"/>
</svg>
